# xmcd
#
# Track frame offsets:
# 150
# 12370
# 26660
# 38890
# 57562
# 67862
# 80595
# 96327
# 109142
# 123027
# 137345
# 152687
#
# Disc length: 2258 seconds
#
#
# Revision: 0
# Processed by: cddbd v1.5.2PL0 Copyright (c) Steve Scherf et al.
# Submitted via: FreeRIP 2.945 
#
DISCID=9508d00c
DTITLE=Memarie - Memarie
DYEAR=2000
DGENRE=Country
TTITLE0=Miss Understood
TTITLE1=Too Many Thens
TTITLE2=I Need A Change
TTITLE3=Riding On The Rain
TTITLE4=Used Cars
TTITLE5=Medicine Man
TTITLE6=Why
TTITLE7=I'd Like To Help You With That
TTITLE8=Somewhere Bound
TTITLE9=Leave Me Alone
TTITLE10=You Don't Know (Till You've Been There)
TTITLE11=What If He's Right
EXTD=
EXTT0=
EXTT1=
EXTT2=
EXTT3=
EXTT4=
EXTT5=
EXTT6=
EXTT7=
EXTT8=
EXTT9=
EXTT10=
EXTT11=
PLAYORDER=
